#!OML:ASF E:\Style4\Style4.ASF
:FULLY-SPECIFIED
:DEGREES
3058
root 0.54434 16.2911 0.0778788 4.67279 3.69926 4.62031
lowerback 13.8328 1.95891 -3.62032
upperback 5.75692 2.1201 -0.333244
thorax -1.79979 1.01706 1.371
lowerneck 7.58779 -6.5813 -6.68211
upperneck 1.1194 -9.22418 5.59624
head -0.342747 -4.70225 3.15173
rclavicle 1.98785e-014 -1.23246e-014
rhumerus -16.0633 36.9075 -26.5941
rradius 136.213
rwrist -77.6493
rhand 48.336 -0.10429
rfingers 7.12502
rthumb 68.8265 0.745158
lclavicle 1.98785e-014 -1.23246e-014
lhumerus 4.2093 -25.301 14.1813
lradius 140.577
lwrist 79.4324
lhand 32.3248 45.8189
lfingers 7.12502
lthumb 55.784 63.3749
rfemur -32.124 -8.02705 12.4227
rtibia 65.2415
rfoot -30.2238 -20.8845
rtoes -17.8263
lfemur -31.4364 -0.751374 -26.3015
ltibia 61.1546
lfoot -32.0817 11.8553
ltoes -18.7515
3059
root 0.541675 16.2845 0.07596 4.62291 3.68778 4.67239
lowerback 13.8731 1.9465 -3.66515
upperback 5.83587 2.09806 -0.338817
thorax -1.73835 1.00385 1.39408
lowerneck 7.50197 -6.55923 -6.70704
upperneck 1.0606 -9.19143 5.57392
head -0.348945 -4.68448 3.14608
rclavicle -3.22031e-014 0
rhumerus -16.5138 35.8152 -28.3583
rradius 136.295
rwrist -77.4726
rhand 48.7065 -0.225102
rfingers 7.12502
rthumb 69.083 1.31948
lclavicle -3.22031e-014 0
lhumerus 3.58425 -24.8237 16.0916
lradius 140.615
lwrist 79.2925
lhand 32.0964 45.9302
lfingers 7.12502
lthumb 55.5812 63.64
rfemur -32.1093 -7.9851 12.3867
rtibia 65.3309
rfoot -30.1798 -21.0806
rtoes -18.1127
lfemur -31.3838 -0.778721 -26.3406
ltibia 61.1392
lfoot -32.2018 11.6652
ltoes -17.8804
3060
root 0.539094 16.2784 0.0738401 4.61036 3.64365 4.72395
lowerback 13.8361 1.95953 -3.69339
upperback 5.94001 2.11585 -0.341442
thorax -1.61073 1.00932 1.40742
lowerneck 7.31841 -6.55013 -6.75835
upperneck 1.03758 -9.17346 5.57114
head -0.323486 -4.67357 3.14596
rclavicle 6.55989e-015 -1.11319e-014
rhumerus -17.0844 34.7173 -30.3119
rradius 136.446
rwrist -77.1615
rhand 48.8915 -0.24701
rfingers 7.12502
rthumb 69.2098 1.65114
lclavicle 6.55989e-015 -1.11319e-014
lhumerus 2.8918 -24.3946 18.3206
lradius 140.651
lwrist 78.98
lhand 32.0608 46.1693
lfingers 7.12502
lthumb 55.5495 63.9029
rfemur -32.1549 -7.91945 12.3526
rtibia 65.4079
rfoot -30.2428 -21.1644
rtoes -18.0974
lfemur -31.3724 -0.75535 -26.3761
ltibia 61.1204
lfoot -32.2511 11.3375
ltoes -16.5755
3061
root 0.535065 16.2716 0.0723058 4.60226 3.59193 4.75294
lowerback 13.806 1.98419 -3.73607
upperback 5.98905 2.14556 -0.337248
thorax -1.54603 1.02189 1.43299
lowerneck 7.29658 -6.51306 -6.53434
upperneck 0.976017 -9.10525 5.32458
head -0.366158 -4.63451 3.02353
rclavicle -1.92821e-014 -3.57812e-015
rhumerus -17.7984 33.6369 -32.5925
rradius 136.561
rwrist -76.7596
rhand 49.2251 -0.265992
rfingers 7.12502
rthumb 69.4364 2.28081
lclavicle -1.92821e-014 -3.57812e-015
lhumerus 1.94452 -24.1678 20.8535
lradius 140.708
lwrist 78.4047
lhand 32.2665 46.0834
lfingers 7.12502
lthumb 55.7323 63.6788
rfemur -32.1983 -7.84345 12.3511
rtibia 65.4751
rfoot -30.4367 -21.1773
rtoes -17.7804
lfemur -31.3617 -0.685931 -26.3982
ltibia 61.1093
lfoot -32.2625 11.2648
ltoes -16.1685
3062
root 0.530574 16.2648 0.0704821 4.56041 3.58548 4.85973
lowerback 13.8572 2.00151 -3.84757
upperback 6.01194 2.15218 -0.350227
thorax -1.5525 1.02354 1.47998
lowerneck 7.44058 -6.50173 -6.01963
upperneck 0.803429 -9.05653 4.77031
head -0.498537 -4.60049 2.7596
rclavicle 1.74931e-014 1.31198e-014
rhumerus -18.6243 32.3802 -35.1014
rradius 136.624
rwrist -76.4226
rhand 49.5376 -0.431085
rfingers 7.12502
rthumb 69.6461 2.7369
lclavicle 1.74931e-014 1.31198e-014
lhumerus 0.865045 -23.7766 23.5326
lradius 140.737
lwrist 77.8087
lhand 32.736 45.9492
lfingers 7.12502
lthumb 56.1484 63.2233
rfemur -32.1733 -7.83368 12.264
rtibia 65.5354
rfoot -30.5112 -21.4269
rtoes -18.3681
lfemur -31.2836 -0.673149 -26.5025
ltibia 61.0808
lfoot -32.3203 11.2595
ltoes -16.137
3063
root 0.526627 16.2625 0.070161 4.49599 3.59737 4.93815
lowerback 13.9478 2.03126 -3.88185
upperback 6.02607 2.1833 -0.337365
thorax -1.58924 1.03878 1.50543
lowerneck 7.59629 -6.51396 -6.05016
upperneck 0.742334 -9.08248 4.6711
head -0.546618 -4.61268 2.74192
rclavicle 1.64991e-014 -1.55052e-014
rhumerus -19.6708 30.9398 -37.7163
rradius 136.717
rwrist -76.1753
rhand 49.8905 -0.629054
rfingers 7.12502
rthumb 69.8798 3.25616
lclavicle 1.64991e-014 -1.55052e-014
lhumerus -0.197877 -23.1082 26.3603
lradius 140.765
lwrist 77.6178
lhand 33.3835 46.4554
lfingers 7.12502
lthumb 56.7204 63.272
rfemur -32.0723 -7.84677 12.2034
rtibia 65.558
rfoot -30.5102 -21.7999
rtoes -19.2937
lfemur -31.1761 -0.673309 -26.5722
ltibia 61.04
lfoot -32.3577 11.2245
ltoes -15.9515
3064
root 0.523332 16.2617 0.0705338 4.477 3.56479 5.01223
lowerback 14.0004 2.07302 -3.89004
upperback 6.02654 2.23468 -0.329609
thorax -1.62021 1.06456 1.50857
lowerneck 7.66705 -6.5119 -6.37055
upperneck 0.796513 -9.10884 4.88015
head -0.515864 -4.63083 2.86986
rclavicle 2.18663e-015 -3.97569e-016
rhumerus -20.7797 29.4343 -40.4418
rradius 136.76
rwrist -75.865
rhand 50.5841 -0.765713
rfingers 7.12502
rthumb 70.3292 4.57941
lclavicle 2.18663e-015 -3.97569e-016
lhumerus -1.37781 -22.4191 29.4408
lradius 140.767
lwrist 77.5507
lhand 34.0132 47.0225
lfingers 7.12502
lthumb 57.2742 63.3778
rfemur -32.0316 -7.79942 12.1439
rtibia 65.5453
rfoot -30.5958 -22.0066
rtoes -19.7266
lfemur -31.1068 -0.559669 -26.6641
ltibia 60.9828
lfoot -32.2882 11.4832
ltoes -16.7282
